<?xml version="1.0" encoding="UTF-8" standalone="no"?> <svg xmlns="http://www.w3.org/2000/svg" viewBox="0 0 512 512"><g id="Medical_treatment_improvement"><path d="M485.8184,42.364,470.2162,26.762a4.5006,4.5006,0,0,0-6.365,0l-15.602,15.602a4.5008,4.5008,0,0,0,3.1823,7.6834h9.6023V95.3281a6,6,0,0,0,12,0V50.0474h9.6021A4.5008,4.5008,0,0,0,485.8184,42.364Z"/><path d="M206.8844,366.9307a35.3566,35.3566,0,0,0-10.8012-18.3594L153.756,310.3525a9.8012,9.8012,0,0,0-14.3652,1.2276c-6.2242,7.9736-8.1245,16.8154-5.3516,24.8965,1.7339,5.0517,5.1108,10.3369,8.7358,15.042l-31.0888-9.2832a12.0713,12.0713,0,0,1-7.8784-7.4561l-4.1939-11.7256A31.5535,31.5535,0,0,0,69.987,302.2119H41.0524a14.2093,14.2093,0,0,0-13.75,17.793L39.53,368.0391c2.66,10.748,5.4981,19.4277,15.6,25.2031l73.1,41.8a17.6358,17.6358,0,0,1,8.8452,15.0283l.2608,20.752c.0005.0361.001.0722.0024.1084q-.0029.0892-.0029.1787c0,16.3545,20.5347,29.166,46.749,29.166,20.709,0,38.6426-8.1465,44.6255-20.2715a19.1369,19.1369,0,0,0,1.377-12.7529Zm11.9614,108.205c-3.4672,7.0264-16.52,14.14-34.7612,14.14-19.0439,0-35.749-8.4893-35.749-18.166,0-.06-.001-.1182-.0029-.1778.0029-.082.0034-.165.0024-.248l-.2607-20.752a28.6782,28.6782,0,0,0-14.3838-24.4384l-73.1-41.8c-5.8706-3.3565-7.8692-8.1436-10.3911-18.3321l-12.25-48.12a3.2094,3.2094,0,0,1,3.103-4.0293H44.31a5.5059,5.5059,0,0,0,.1877.9619l16.0776,54.61a14.3643,14.3643,0,0,0,7.397,8.7334l14.1411,6.9492a5.5,5.5,0,0,0,4.8516-9.873l-14.1411-6.9493a3.3078,3.3078,0,0,1-1.7046-1.9951L55.6811,313.2119h8.8648l11.1183,41.7246a14.301,14.301,0,0,0,7.6875,9.1387l14.6055,6.8975a5.5,5.5,0,0,0,4.6972-9.9473l-14.6059-6.8975a3.29,3.29,0,0,1-1.7676-2.0693L76.1873,314.1794a20.525,20.525,0,0,1,13.0711,12.5852L93.4528,338.49a23.1164,23.1164,0,0,0,15.0864,14.2862l50.1914,14.9873a5.5,5.5,0,0,0,5.2652-9.3477c-4.357-3.9453-16.3633-16.2187-19.5523-25.51-1.7759-5.1757.4082-10.0761,2.8691-13.5507l41.398,37.38a24.4059,24.4059,0,0,1,7.457,12.6738L219.37,469.73A8.1157,8.1157,0,0,1,218.8458,475.1357Z"/><path d="M432.3405,302.2119H403.4059A31.5552,31.5552,0,0,0,373.777,323.06l-4.19,11.7138a12.0753,12.0753,0,0,1-7.8813,7.462l-31.0889,9.2832c3.6255-4.7051,7.0025-9.99,8.7364-15.042,2.7729-8.0811.8725-16.9229-5.3521-24.8975a9.8016,9.8016,0,0,0-14.3647-1.2266l-42.3277,38.2188a35.3593,35.3593,0,0,0-10.8008,18.3594l-23.2031,100.32a19.1359,19.1359,0,0,0,1.3775,12.7519c5.9829,12.126,23.9165,20.2725,44.6255,20.2725,26.2143,0,46.749-12.8115,46.749-29.166q0-.0894-.003-.1787c.0015-.0362.002-.0723.0025-.1084l.2607-20.752a17.6367,17.6367,0,0,1,8.8448-15.0283l73.1-41.8c10.102-5.7754,12.94-14.4551,15.5913-25.168l12.2236-48.0185a14.21,14.21,0,0,0-13.7368-17.8438Zm3.09,15.08-12.2456,48.1045c-2.5132,10.1533-4.5117,14.94-10.3823,18.2969l-73.1006,41.8a28.6788,28.6788,0,0,0-14.3833,24.4384l-.2607,20.752c-.001.083,0,.166.0024.248-.0019.06-.0029.1182-.0029.1778,0,9.6767-16.7051,18.166-35.749,18.166-18.2408,0-31.294-7.1133-34.7613-14.1406a8.1156,8.1156,0,0,1-.5244-5.4053l23.2026-100.32a24.4092,24.4092,0,0,1,7.4566-12.6738l41.3984-37.38c2.461,3.4756,4.6446,8.3759,2.8692,13.5507-3.1787,9.2627-15.1929,21.5557-19.5523,25.51a5.5,5.5,0,0,0,5.2652,9.3477l50.1909-14.9873a23.12,23.12,0,0,0,15.0893-14.292l4.19-11.7139a20.5291,20.5291,0,0,1,13.073-12.5908l-10.0813,37.833a3.3108,3.3108,0,0,1-1.78,2.1152l-14.6055,6.8975a5.5,5.5,0,1,0,4.6973,9.9473l14.605-6.8975a14.3234,14.3234,0,0,0,7.7-9.1846l11.106-41.6787h8.8649l-15.43,52.41a3.3214,3.3214,0,0,1-1.7124,2.0224l-15.1484,7.4444a5.5,5.5,0,1,0,4.8515,9.873l15.1485-7.4443a14.3775,14.3775,0,0,0,7.4047-8.7608l16.07-54.583a5.5059,5.5059,0,0,0,.1877-.9619h3.2576a3.21,3.21,0,0,1,3.09,4.08Z"/><path d="M369.0871,116.96a29.9039,29.9039,0,1,0-29.9034-29.9034A29.9376,29.9376,0,0,0,369.0871,116.96Zm0-47.8077a17.9039,17.9039,0,1,1-17.9034,17.9043A17.9243,17.9243,0,0,1,369.0871,69.1523Z"/><path d="M467.0338,112.3467a6,6,0,0,0-6,6v10.8388a6,6,0,0,0,12,0V118.3467A6,6,0,0,0,467.0338,112.3467Z"/><path d="M116.8742,284.8115H350.1828a24.5118,24.5118,0,0,0,24.4843-24.4844V203.9248l-.2065-41.2881h2.5815a8.1474,8.1474,0,0,0,7.9937-6.4l3.7329-16.6494q1.3234-.5127,2.6357-1.0986L405.82,147.623a8.146,8.146,0,0,0,10.1816-1.124l11.25-11.251a8.1467,8.1467,0,0,0,1.127-10.1777l-9.1377-14.418q.5844-1.308,1.0976-2.6357l16.6514-3.7324a8.1472,8.1472,0,0,0,6.3994-7.9942V80.38a8.1471,8.1471,0,0,0-6.4-7.9942l-16.65-3.7324q-.512-1.3257-1.0976-2.6357L428.3771,51.6a8.1439,8.1439,0,0,0-1.126-10.1787l-11.25-11.25a8.1467,8.1467,0,0,0-10.1782-1.1279l-14.4185,9.1377q-1.3073-.5846-2.6362-1.0977l-3.7324-16.65a8.1476,8.1476,0,0,0-7.9937-6.3994H361.1315a8.1475,8.1475,0,0,0-7.9937,6.4L349.4059,37.083q-1.3272.5127-2.6367,1.0986l-14.42-9.14A8.1491,8.1491,0,0,0,322.173,30.17l-11.25,11.251a8.1455,8.1455,0,0,0-1.1269,10.1777l9.1377,14.419q-.5853,1.308-1.0977,2.6357l-10.968,2.4585A68.5225,68.5225,0,0,0,288.067,39.248a70.6455,70.6455,0,0,0-49.374-20.1406h-1.76a69.0089,69.0089,0,0,0-68.7373,63.917H116.8742A24.5118,24.5118,0,0,0,92.39,107.5088V260.3271A24.5118,24.5118,0,0,0,116.8742,284.8115Zm205.63-204.9072a8.1486,8.1486,0,0,0,5.96-5.3711,42.5751,42.5751,0,0,1,2.1406-5.1387,8.2506,8.2506,0,0,0-.4116-8.0273L321.5636,47.75l6.939-6.9385,13.62,8.6319a8.1459,8.1459,0,0,0,8.0249.4082,42.54,42.54,0,0,1,5.1353-2.1387,8.15,8.15,0,0,0,5.3745-5.9639L364.18,26.0332h9.813L377.5167,41.75a8.1478,8.1478,0,0,0,5.3716,5.9619,42.647,42.647,0,0,1,5.1367,2.1387,8.2555,8.2555,0,0,0,8.03-.4092l13.6167-8.63,6.939,6.9385-8.6279,13.6152a8.2465,8.2465,0,0,0-.4131,8.0293,42.762,42.762,0,0,1,2.1406,5.1377,8.152,8.152,0,0,0,5.9629,5.3731l15.7158,3.5224v9.8145l-15.7109,3.5215a8.1418,8.1418,0,0,0-5.9668,5.3711,42.7676,42.7676,0,0,1-2.1436,5.1435,8.1491,8.1491,0,0,0,.4136,8.0244l8.6294,13.6162-6.9385,6.9395-13.6137-8.627a8.2464,8.2464,0,0,0-8.0289-.414,42.8768,42.8768,0,0,1-5.1381,2.14,8.15,8.15,0,0,0-5.3746,5.9639l-3.5234,15.7158H364.18L360.6574,134.92a8.149,8.149,0,0,0-5.3721-5.9619,42.7346,42.7346,0,0,1-5.1377-2.14,8.245,8.245,0,0,0-8.0278.41l-13.6177,8.63-6.9385-6.9395,8.63-13.6171a8.1478,8.1478,0,0,0,.41-8.0274,42.7474,42.7474,0,0,1-2.14-5.1367,8.15,8.15,0,0,0-5.9634-5.3731l-15.7153-3.5224V83.4277Zm-122.896.6182C202.66,62.041,217.3112,50.1,236.9328,50.1h1.76c19.6211,0,34.272,11.9414,37.3242,30.4229a2.16,2.16,0,0,1-2.1333,2.5019H201.7414a2.16,2.16,0,0,1-2.1333-2.5019Zm34.92,37.8532a63.9071,63.9071,0,1,1-63.9071,63.907A63.907,63.907,0,0,1,234.5285,118.3757Z"/><path d="M203.52,198.9229h14.3681V213.291a9.0511,9.0511,0,0,0,9.041,9.041h15.1978a9.0514,9.0514,0,0,0,9.0415-9.041V198.9229h14.3682a9.0516,9.0516,0,0,0,9.0415-9.0411V174.6836a9.0515,9.0515,0,0,0-9.0415-9.041H251.1686V151.2744a9.0515,9.0515,0,0,0-9.0415-9.041H226.9293a9.0511,9.0511,0,0,0-9.041,9.041v14.3682H203.52a9.0514,9.0514,0,0,0-9.0415,9.041v15.1982A9.0515,9.0515,0,0,0,203.52,198.9229Zm2.9585-21.28h14.3681a9.0515,9.0515,0,0,0,9.0415-9.041V154.2334h9.28v14.3682a9.0511,9.0511,0,0,0,9.041,9.041h14.3687v9.28H248.21a9.0511,9.0511,0,0,0-9.041,9.041V210.332h-9.28V195.9639a9.0514,9.0514,0,0,0-9.0415-9.041H206.4787Z"/></g></svg>